<svg xmlns="http://www.w3.org/2000/svg" height="24" viewBox="0 -960 960 960" width="24" fill="#4361ee">
  <path d="M480-120q-151 0-255.5-104.5T120-480v-280q0-17 11.5-28.5T160-800h240v80H200v240q0 117 81.5 198.5T480-200q117 0 198.5-81.5T760-480v-240H560v-80h240q17 0 28.5 11.5T840-760v280q0 151-104.5 255.5T480-120Zm0-320q33 0 56.5-23.5T560-520q0-33-23.5-56.5T480-600q-33 0-56.5 23.5T400-520q0 33 23.5 56.5T480-440Zm0 160q-66 0-113-47t-47-113q0-66 47-113t113-47q66 0 113 47t47 113q0 66-47 113t-113 47Z"/>
</svg> 